solid ascii
  facet normal -0.000000e+000 -1.000000e+000 -0.000000e+000
    outer loop
      vertex   -3.500000e+001 -1.550000e+001 1.450000e+001
      vertex   -5.200000e+001 -1.550000e+001 1.450000e+001
      vertex   -3.500000e+001 -1.550000e+001 -2.100000e+001
    endloop
  endfacet
  facet normal 0.000000e+000 -9.019191e-001 0.000000e+000
    outer loop
      vertex   -3.500000e+001 -1.550000e+001 -2.100000e+001
      vertex   -5.200000e+001 -1.550000e+001 1.450000e+001
      vertex   -5.200000e+001 -1.550000e+001 -2.100000e+001
    endloop
  endfacet
  facet normal -0.000000e+000 -1.000000e+000 -0.000000e+000
    outer loop
      vertex   -3.500000e+001 -1.550000e+001 -2.100000e+001
      vertex   -5.200000e+001 -1.550000e+001 -2.100000e+001
      vertex   -3.500000e+001 -1.550000e+001 -5.650000e+001
    endloop
  endfacet
  facet normal 0.000000e+000 -9.019191e-001 0.000000e+000
    outer loop
      vertex   -3.500000e+001 -1.550000e+001 -5.650000e+001
      vertex   -5.200000e+001 -1.550000e+001 -2.100000e+001
      vertex   -5.200000e+001 -1.550000e+001 -5.650000e+001
    endloop
  endfacet
  facet normal 0.000000e+000 0.000000e+000 -1.000000e+000
    outer loop
      vertex   -3.500000e+001 -1.550000e+001 -5.650000e+001
      vertex   -5.200000e+001 -1.550000e+001 -5.650000e+001
      vertex   -3.500000e+001 1.550000e+001 -5.650000e+001
    endloop
  endfacet
  facet normal -0.000000e+000 0.000000e+000 -8.768124e-001
    outer loop
      vertex   -3.500000e+001 1.550000e+001 -5.650000e+001
      vertex   -5.200000e+001 -1.550000e+001 -5.650000e+001
      vertex   -5.200000e+001 1.550000e+001 -5.650000e+001
    endloop
  endfacet
  facet normal 0.000000e+000 1.000000e+000 -0.000000e+000
    outer loop
      vertex   -3.500000e+001 1.550000e+001 -5.650000e+001
      vertex   -5.200000e+001 1.550000e+001 -5.650000e+001
      vertex   -3.500000e+001 1.550000e+001 -2.100000e+001
    endloop
  endfacet
  facet normal 0.000000e+000 9.019191e-001 0.000000e+000
    outer loop
      vertex   -3.500000e+001 1.550000e+001 -2.100000e+001
      vertex   -5.200000e+001 1.550000e+001 -5.650000e+001
      vertex   -5.200000e+001 1.550000e+001 -2.100000e+001
    endloop
  endfacet
  facet normal 0.000000e+000 1.000000e+000 -0.000000e+000
    outer loop
      vertex   -3.500000e+001 1.550000e+001 -2.100000e+001
      vertex   -5.200000e+001 1.550000e+001 -2.100000e+001
      vertex   -3.500000e+001 1.550000e+001 1.450000e+001
    endloop
  endfacet
  facet normal 0.000000e+000 9.019191e-001 0.000000e+000
    outer loop
      vertex   -3.500000e+001 1.550000e+001 1.450000e+001
      vertex   -5.200000e+001 1.550000e+001 -2.100000e+001
      vertex   -5.200000e+001 1.550000e+001 1.450000e+001
    endloop
  endfacet
  facet normal 0.000000e+000 0.000000e+000 1.000000e+000
    outer loop
      vertex   -3.500000e+001 1.550000e+001 1.450000e+001
      vertex   -5.200000e+001 1.550000e+001 1.450000e+001
      vertex   -3.500000e+001 -1.550000e+001 1.450000e+001
    endloop
  endfacet
  facet normal 0.000000e+000 0.000000e+000 8.768124e-001
    outer loop
      vertex   -3.500000e+001 -1.550000e+001 1.450000e+001
      vertex   -5.200000e+001 1.550000e+001 1.450000e+001
      vertex   -5.200000e+001 -1.550000e+001 1.450000e+001
    endloop
  endfacet
  facet normal 1.000000e+000 0.000000e+000 0.000000e+000
    outer loop
      vertex   -3.500000e+001 1.550000e+001 1.450000e+001
      vertex   -3.500000e+001 -1.550000e+001 1.450000e+001
      vertex   -3.500000e+001 1.550000e+001 -2.100000e+001
    endloop
  endfacet
  facet normal 7.532335e-001 0.000000e+000 0.000000e+000
    outer loop
      vertex   -3.500000e+001 1.550000e+001 -2.100000e+001
      vertex   -3.500000e+001 -1.550000e+001 1.450000e+001
      vertex   -3.500000e+001 -1.550000e+001 -2.100000e+001
    endloop
  endfacet
  facet normal 1.000000e+000 0.000000e+000 0.000000e+000
    outer loop
      vertex   -3.500000e+001 1.550000e+001 -2.100000e+001
      vertex   -3.500000e+001 -1.550000e+001 -2.100000e+001
      vertex   -3.500000e+001 1.550000e+001 -5.650000e+001
    endloop
  endfacet
  facet normal 7.532335e-001 0.000000e+000 0.000000e+000
    outer loop
      vertex   -3.500000e+001 1.550000e+001 -5.650000e+001
      vertex   -3.500000e+001 -1.550000e+001 -2.100000e+001
      vertex   -3.500000e+001 -1.550000e+001 -5.650000e+001
    endloop
  endfacet
  facet normal -5.960663e-002 0.000000e+000 0.000000e+000
    outer loop
      vertex   -5.200000e+001 -1.550000e+001 -2.100000e+001
      vertex   -5.200000e+001 -1.349964e+001 -5.449964e+001
      vertex   -5.200000e+001 -1.550000e+001 -5.650000e+001
    endloop
  endfacet
  facet normal -6.567710e-001 0.000000e+000 0.000000e+000
    outer loop
      vertex   -5.200000e+001 -1.550000e+001 -5.650000e+001
      vertex   -5.200000e+001 -1.349964e+001 -5.449964e+001
      vertex   -5.200000e+001 1.349964e+001 -5.449964e+001
    endloop
  endfacet
  facet normal -6.881522e-002 0.000000e+000 0.000000e+000
    outer loop
      vertex   -5.200000e+001 -1.550000e+001 -5.650000e+001
      vertex   -5.200000e+001 1.349964e+001 -5.449964e+001
      vertex   -5.200000e+001 1.550000e+001 -5.650000e+001
    endloop
  endfacet
  facet normal -7.071066e-001 0.000000e+000 0.000000e+000
    outer loop
      vertex   -5.200000e+001 1.550000e+001 -5.650000e+001
      vertex   -5.200000e+001 1.349964e+001 -5.449964e+001
      vertex   -5.200000e+001 1.550000e+001 -2.100000e+001
    endloop
  endfacet
  facet normal -9.982219e-001 -0.000000e+000 0.000000e+000
    outer loop
      vertex   -5.200000e+001 1.550000e+001 -2.100000e+001
      vertex   -5.200000e+001 1.349964e+001 -5.449964e+001
      vertex   -5.200000e+001 1.349964e+001 -2.100000e+001
    endloop
  endfacet
  facet normal -9.982219e-001 0.000000e+000 0.000000e+000
    outer loop
      vertex   -5.200000e+001 1.550000e+001 -2.100000e+001
      vertex   -5.200000e+001 1.349964e+001 -2.100000e+001
      vertex   -5.200000e+001 1.349964e+001 1.249965e+001
    endloop
  endfacet
  facet normal -7.071068e-001 0.000000e+000 0.000000e+000
    outer loop
      vertex   -5.200000e+001 -1.550000e+001 1.450000e+001
      vertex   -5.200000e+001 -1.349964e+001 1.249965e+001
      vertex   -5.200000e+001 -1.550000e+001 -2.100000e+001
    endloop
  endfacet
  facet normal -9.982219e-001 0.000000e+000 0.000000e+000
    outer loop
      vertex   -5.200000e+001 -1.550000e+001 -2.100000e+001
      vertex   -5.200000e+001 -1.349964e+001 1.249965e+001
      vertex   -5.200000e+001 -1.349964e+001 -2.100000e+001
    endloop
  endfacet
  facet normal -9.982219e-001 0.000000e+000 0.000000e+000
    outer loop
      vertex   -5.200000e+001 -1.550000e+001 -2.100000e+001
      vertex   -5.200000e+001 -1.349964e+001 -2.100000e+001
      vertex   -5.200000e+001 -1.349964e+001 -5.449964e+001
    endloop
  endfacet
  facet normal -7.071068e-001 0.000000e+000 0.000000e+000
    outer loop
      vertex   -5.200000e+001 -1.550000e+001 1.450000e+001
      vertex   -5.200000e+001 1.550000e+001 1.450000e+001
      vertex   -5.200000e+001 -1.349964e+001 1.249965e+001
    endloop
  endfacet
  facet normal -6.881519e-002 0.000000e+000 0.000000e+000
    outer loop
      vertex   -5.200000e+001 -1.349964e+001 1.249965e+001
      vertex   -5.200000e+001 1.550000e+001 1.450000e+001
      vertex   -5.200000e+001 1.349964e+001 1.249965e+001
    endloop
  endfacet
  facet normal -7.479978e-001 0.000000e+000 0.000000e+000
    outer loop
      vertex   -5.200000e+001 1.349964e+001 1.249965e+001
      vertex   -5.200000e+001 1.550000e+001 1.450000e+001
      vertex   -5.200000e+001 1.550000e+001 -2.100000e+001
    endloop
  endfacet
  facet normal 0.000000e+000 1.000000e+000 -0.000000e+000
    outer loop
      vertex   -3.572236e+001 -1.349964e+001 -5.449964e+001
      vertex   -5.200000e+001 -1.349964e+001 -5.449964e+001
      vertex   -3.572236e+001 -1.349964e+001 -2.100000e+001
    endloop
  endfacet
  facet normal 0.000000e+000 8.994408e-001 0.000000e+000
    outer loop
      vertex   -3.572236e+001 -1.349964e+001 -2.100000e+001
      vertex   -5.200000e+001 -1.349964e+001 -5.449964e+001
      vertex   -5.200000e+001 -1.349964e+001 -2.100000e+001
    endloop
  endfacet
  facet normal 0.000000e+000 1.000000e+000 -0.000000e+000
    outer loop
      vertex   -3.572236e+001 -1.349964e+001 -2.100000e+001
      vertex   -5.200000e+001 -1.349964e+001 -2.100000e+001
      vertex   -3.572236e+001 -1.349964e+001 1.249965e+001
    endloop
  endfacet
  facet normal 0.000000e+000 8.994408e-001 0.000000e+000
    outer loop
      vertex   -3.572236e+001 -1.349964e+001 1.249965e+001
      vertex   -5.200000e+001 -1.349964e+001 -2.100000e+001
      vertex   -5.200000e+001 -1.349964e+001 1.249965e+001
    endloop
  endfacet
  facet normal 0.000000e+000 0.000000e+000 -1.000000e+000
    outer loop
      vertex   -5.200000e+001 1.349964e+001 1.249965e+001
      vertex   -3.572236e+001 1.349964e+001 1.249965e+001
      vertex   -5.200000e+001 -1.349964e+001 1.249965e+001
    endloop
  endfacet
  facet normal 0.000000e+000 0.000000e+000 -8.563985e-001
    outer loop
      vertex   -5.200000e+001 -1.349964e+001 1.249965e+001
      vertex   -3.572236e+001 1.349964e+001 1.249965e+001
      vertex   -3.572236e+001 -1.349964e+001 1.249965e+001
    endloop
  endfacet
  facet normal -1.000000e+000 0.000000e+000 0.000000e+000
    outer loop
      vertex   -3.572236e+001 1.349964e+001 -5.449964e+001
      vertex   -3.572236e+001 -1.349964e+001 -5.449964e+001
      vertex   -3.572236e+001 1.349964e+001 -2.100000e+001
    endloop
  endfacet
  facet normal -7.786011e-001 -0.000000e+000 0.000000e+000
    outer loop
      vertex   -3.572236e+001 1.349964e+001 -2.100000e+001
      vertex   -3.572236e+001 -1.349964e+001 -5.449964e+001
      vertex   -3.572236e+001 -1.349964e+001 -2.100000e+001
    endloop
  endfacet
  facet normal -1.000000e+000 0.000000e+000 0.000000e+000
    outer loop
      vertex   -3.572236e+001 1.349964e+001 -2.100000e+001
      vertex   -3.572236e+001 -1.349964e+001 -2.100000e+001
      vertex   -3.572236e+001 1.349964e+001 1.249965e+001
    endloop
  endfacet
  facet normal -7.786011e-001 -0.000000e+000 0.000000e+000
    outer loop
      vertex   -3.572236e+001 1.349964e+001 1.249965e+001
      vertex   -3.572236e+001 -1.349964e+001 -2.100000e+001
      vertex   -3.572236e+001 -1.349964e+001 1.249965e+001
    endloop
  endfacet
  facet normal -0.000000e+000 -1.000000e+000 -0.000000e+000
    outer loop
      vertex   -3.572236e+001 1.349964e+001 1.249965e+001
      vertex   -5.200000e+001 1.349964e+001 1.249965e+001
      vertex   -3.572236e+001 1.349964e+001 -2.100000e+001
    endloop
  endfacet
  facet normal 0.000000e+000 -8.994408e-001 0.000000e+000
    outer loop
      vertex   -3.572236e+001 1.349964e+001 -2.100000e+001
      vertex   -5.200000e+001 1.349964e+001 1.249965e+001
      vertex   -5.200000e+001 1.349964e+001 -2.100000e+001
    endloop
  endfacet
  facet normal -0.000000e+000 -1.000000e+000 -0.000000e+000
    outer loop
      vertex   -3.572236e+001 1.349964e+001 -2.100000e+001
      vertex   -5.200000e+001 1.349964e+001 -2.100000e+001
      vertex   -3.572236e+001 1.349964e+001 -5.449964e+001
    endloop
  endfacet
  facet normal 0.000000e+000 -8.994408e-001 0.000000e+000
    outer loop
      vertex   -3.572236e+001 1.349964e+001 -5.449964e+001
      vertex   -5.200000e+001 1.349964e+001 -2.100000e+001
      vertex   -5.200000e+001 1.349964e+001 -5.449964e+001
    endloop
  endfacet
  facet normal 0.000000e+000 0.000000e+000 1.000000e+000
    outer loop
      vertex   -5.200000e+001 -1.349964e+001 -5.449964e+001
      vertex   -3.572236e+001 -1.349964e+001 -5.449964e+001
      vertex   -5.200000e+001 1.349964e+001 -5.449964e+001
    endloop
  endfacet
  facet normal -0.000000e+000 0.000000e+000 8.563985e-001
    outer loop
      vertex   -5.200000e+001 1.349964e+001 -5.449964e+001
      vertex   -3.572236e+001 -1.349964e+001 -5.449964e+001
      vertex   -3.572236e+001 1.349964e+001 -5.449964e+001
    endloop
  endfacet
endsolid
