solid ascii
  facet normal -7.071068e-001 7.071068e-001 0.000000e+000
    outer loop
      vertex   -1.282664e+001 4.248959e+001 -6.500000e+001
      vertex   -3.616116e+001 1.915507e+001 -6.500000e+001
      vertex   -1.282664e+001 4.248959e+001 -9.999996e+000
    endloop
  endfacet
  facet normal -6.063391e-001 6.063390e-001 0.000000e+000
    outer loop
      vertex   -1.282664e+001 4.248959e+001 -9.999996e+000
      vertex   -3.616116e+001 1.915507e+001 -6.500000e+001
      vertex   -3.616116e+001 1.915507e+001 -9.999996e+000
    endloop
  endfacet
  facet normal -7.071068e-001 7.071068e-001 0.000000e+000
    outer loop
      vertex   -1.282664e+001 4.248959e+001 -9.999996e+000
      vertex   -3.616116e+001 1.915507e+001 -9.999996e+000
      vertex   -1.282664e+001 4.248959e+001 4.500000e+001
    endloop
  endfacet
  facet normal -6.063391e-001 6.063390e-001 0.000000e+000
    outer loop
      vertex   -1.282664e+001 4.248959e+001 4.500000e+001
      vertex   -3.616116e+001 1.915507e+001 -9.999996e+000
      vertex   -3.616116e+001 1.915507e+001 4.500000e+001
    endloop
  endfacet
  facet normal 0.000000e+000 -0.000000e+000 -1.000000e+000
    outer loop
      vertex   -1.919060e+001 4.885355e+001 4.500000e+001
      vertex   -1.282664e+001 4.248959e+001 4.500000e+001
      vertex   -4.252513e+001 2.551903e+001 4.500000e+001
    endloop
  endfacet
  facet normal 0.000000e+000 0.000000e+000 -9.647638e-001
    outer loop
      vertex   -4.252513e+001 2.551903e+001 4.500000e+001
      vertex   -1.282664e+001 4.248959e+001 4.500000e+001
      vertex   -3.616116e+001 1.915507e+001 4.500000e+001
    endloop
  endfacet
  facet normal -7.071066e-001 -7.071069e-001 0.000000e+000
    outer loop
      vertex   -1.919060e+001 4.885355e+001 -6.500000e+001
      vertex   -1.282664e+001 4.248959e+001 -6.500000e+001
      vertex   -1.919060e+001 4.885355e+001 -9.999996e+000
    endloop
  endfacet
  facet normal -6.978256e-001 -6.978258e-001 0.000000e+000
    outer loop
      vertex   -1.919060e+001 4.885355e+001 -9.999996e+000
      vertex   -1.282664e+001 4.248959e+001 -6.500000e+001
      vertex   -1.282664e+001 4.248959e+001 -9.999996e+000
    endloop
  endfacet
  facet normal -7.071066e-001 -7.071069e-001 0.000000e+000
    outer loop
      vertex   -1.919060e+001 4.885355e+001 -9.999996e+000
      vertex   -1.282664e+001 4.248959e+001 -9.999996e+000
      vertex   -1.919060e+001 4.885355e+001 4.500000e+001
    endloop
  endfacet
  facet normal -6.978256e-001 -6.978258e-001 0.000000e+000
    outer loop
      vertex   -1.919060e+001 4.885355e+001 4.500000e+001
      vertex   -1.282664e+001 4.248959e+001 -9.999996e+000
      vertex   -1.282664e+001 4.248959e+001 4.500000e+001
    endloop
  endfacet
  facet normal -0.000000e+000 0.000000e+000 1.000000e+000
    outer loop
      vertex   -4.252513e+001 2.551903e+001 -6.500000e+001
      vertex   -3.616116e+001 1.915507e+001 -6.500000e+001
      vertex   -1.919060e+001 4.885355e+001 -6.500000e+001
    endloop
  endfacet
  facet normal 0.000000e+000 0.000000e+000 9.647638e-001
    outer loop
      vertex   -1.919060e+001 4.885355e+001 -6.500000e+001
      vertex   -3.616116e+001 1.915507e+001 -6.500000e+001
      vertex   -1.282664e+001 4.248959e+001 -6.500000e+001
    endloop
  endfacet
  facet normal 7.071066e-001 7.071070e-001 0.000000e+000
    outer loop
      vertex   -4.252513e+001 2.551903e+001 4.500000e+001
      vertex   -3.616116e+001 1.915507e+001 4.500000e+001
      vertex   -4.252513e+001 2.551903e+001 -9.999996e+000
    endloop
  endfacet
  facet normal 6.978255e-001 6.978259e-001 0.000000e+000
    outer loop
      vertex   -4.252513e+001 2.551903e+001 -9.999996e+000
      vertex   -3.616116e+001 1.915507e+001 4.500000e+001
      vertex   -3.616116e+001 1.915507e+001 -9.999996e+000
    endloop
  endfacet
  facet normal 7.071066e-001 7.071070e-001 0.000000e+000
    outer loop
      vertex   -4.252513e+001 2.551903e+001 -9.999996e+000
      vertex   -3.616116e+001 1.915507e+001 -9.999996e+000
      vertex   -4.252513e+001 2.551903e+001 -6.500000e+001
    endloop
  endfacet
  facet normal 6.978255e-001 6.978259e-001 0.000000e+000
    outer loop
      vertex   -4.252513e+001 2.551903e+001 -6.500000e+001
      vertex   -3.616116e+001 1.915507e+001 -9.999996e+000
      vertex   -3.616116e+001 1.915507e+001 -6.500000e+001
    endloop
  endfacet
  facet normal -4.034029e-002 4.034029e-002 0.000000e+000
    outer loop
      vertex   -4.252513e+001 2.551903e+001 4.500000e+001
      vertex   -1.777639e+001 5.026777e+001 4.700000e+001
      vertex   -1.919060e+001 4.885355e+001 4.500000e+001
    endloop
  endfacet
  facet normal -5.269654e-001 5.269654e-001 0.000000e+000
    outer loop
      vertex   -1.919060e+001 4.885355e+001 4.500000e+001
      vertex   -1.777639e+001 5.026777e+001 4.700000e+001
      vertex   -1.777639e+001 5.026777e+001 9.000004e+000
    endloop
  endfacet
  facet normal -3.922327e-002 3.922327e-002 0.000000e+000
    outer loop
      vertex   -1.919060e+001 4.885355e+001 4.500000e+001
      vertex   -1.777639e+001 5.026777e+001 9.000004e+000
      vertex   -1.919060e+001 4.885355e+001 -9.999996e+000
    endloop
  endfacet
  facet normal -1.472334e-001 1.472334e-001 0.000000e+000
    outer loop
      vertex   -1.919060e+001 4.885355e+001 -9.999996e+000
      vertex   -1.777639e+001 5.026777e+001 9.000004e+000
      vertex   -1.777639e+001 5.026777e+001 -2.900000e+001
    endloop
  endfacet
  facet normal -7.402340e-002 7.402340e-002 0.000000e+000
    outer loop
      vertex   -1.919060e+001 4.885355e+001 -9.999996e+000
      vertex   -1.777639e+001 5.026777e+001 -2.900000e+001
      vertex   -1.919060e+001 4.885355e+001 -6.500000e+001
    endloop
  endfacet
  facet normal -5.269654e-001 5.269654e-001 0.000000e+000
    outer loop
      vertex   -1.919060e+001 4.885355e+001 -6.500000e+001
      vertex   -1.777639e+001 5.026777e+001 -2.900000e+001
      vertex   -1.777639e+001 5.026777e+001 -6.700000e+001
    endloop
  endfacet
  facet normal -5.277103e-001 5.277103e-001 -2.720348e-008
    outer loop
      vertex   -1.919060e+001 4.885355e+001 -6.500000e+001
      vertex   -1.777639e+001 5.026777e+001 -6.700000e+001
      vertex   -4.393934e+001 2.410482e+001 -6.700000e+001
    endloop
  endfacet
  facet normal -7.402330e-002 7.402320e-002 0.000000e+000
    outer loop
      vertex   -4.252513e+001 2.551903e+001 -9.999996e+000
      vertex   -4.393934e+001 2.410482e+001 9.000004e+000
      vertex   -4.252513e+001 2.551903e+001 4.500000e+001
    endloop
  endfacet
  facet normal -5.269653e-001 5.269646e-001 0.000000e+000
    outer loop
      vertex   -4.252513e+001 2.551903e+001 4.500000e+001
      vertex   -4.393934e+001 2.410482e+001 9.000004e+000
      vertex   -4.393934e+001 2.410482e+001 4.700000e+001
    endloop
  endfacet
  facet normal -5.277108e-001 5.277107e-001 4.760608e-007
    outer loop
      vertex   -4.252513e+001 2.551903e+001 4.500000e+001
      vertex   -4.393934e+001 2.410482e+001 4.700000e+001
      vertex   -1.777639e+001 5.026777e+001 4.700000e+001
    endloop
  endfacet
  facet normal -7.402330e-002 7.402320e-002 0.000000e+000
    outer loop
      vertex   -4.393934e+001 2.410482e+001 9.000004e+000
      vertex   -4.252513e+001 2.551903e+001 -9.999996e+000
      vertex   -4.393934e+001 2.410482e+001 -2.900000e+001
    endloop
  endfacet
  facet normal -1.129170e-001 1.129169e-001 0.000000e+000
    outer loop
      vertex   -4.393934e+001 2.410482e+001 -2.900000e+001
      vertex   -4.252513e+001 2.551903e+001 -9.999996e+000
      vertex   -4.252513e+001 2.551903e+001 -6.500000e+001
    endloop
  endfacet
  facet normal -3.922321e-002 3.922316e-002 0.000000e+000
    outer loop
      vertex   -4.393934e+001 2.410482e+001 -2.900000e+001
      vertex   -4.252513e+001 2.551903e+001 -6.500000e+001
      vertex   -4.393934e+001 2.410482e+001 -6.700000e+001
    endloop
  endfacet
  facet normal -4.706610e-001 4.706610e-001 -4.488573e-007
    outer loop
      vertex   -4.393934e+001 2.410482e+001 -6.700000e+001
      vertex   -4.252513e+001 2.551903e+001 -6.500000e+001
      vertex   -1.919060e+001 4.885355e+001 -6.500000e+001
    endloop
  endfacet
  facet normal 7.071068e-001 -7.071067e-001 0.000000e+000
    outer loop
      vertex   -9.998215e+000 4.248959e+001 4.700000e+001
      vertex   -3.616116e+001 1.632664e+001 4.700000e+001
      vertex   -9.998215e+000 4.248959e+001 9.000004e+000
    endloop
  endfacet
  facet normal 5.066217e-001 -5.066216e-001 0.000000e+000
    outer loop
      vertex   -9.998215e+000 4.248959e+001 9.000004e+000
      vertex   -3.616116e+001 1.632664e+001 4.700000e+001
      vertex   -3.616116e+001 1.632664e+001 9.000004e+000
    endloop
  endfacet
  facet normal 5.066217e-001 -5.066216e-001 0.000000e+000
    outer loop
      vertex   -9.998215e+000 4.248959e+001 9.000004e+000
      vertex   -3.616116e+001 1.632664e+001 9.000004e+000
      vertex   -3.616116e+001 1.632664e+001 -2.900000e+001
    endloop
  endfacet
  facet normal 7.071068e-001 -7.071067e-001 0.000000e+000
    outer loop
      vertex   -3.616116e+001 1.632664e+001 -6.700000e+001
      vertex   -9.998215e+000 4.248959e+001 -6.700000e+001
      vertex   -3.616116e+001 1.632664e+001 -2.900000e+001
    endloop
  endfacet
  facet normal 5.066217e-001 -5.066216e-001 0.000000e+000
    outer loop
      vertex   -3.616116e+001 1.632664e+001 -2.900000e+001
      vertex   -9.998215e+000 4.248959e+001 -6.700000e+001
      vertex   -9.998215e+000 4.248959e+001 -2.900000e+001
    endloop
  endfacet
  facet normal 5.066217e-001 -5.066216e-001 0.000000e+000
    outer loop
      vertex   -3.616116e+001 1.632664e+001 -2.900000e+001
      vertex   -9.998215e+000 4.248959e+001 -2.900000e+001
      vertex   -9.998215e+000 4.248959e+001 9.000004e+000
    endloop
  endfacet
  facet normal 0.000000e+000 0.000000e+000 1.000000e+000
    outer loop
      vertex   -9.998215e+000 4.248959e+001 4.700000e+001
      vertex   -1.777639e+001 5.026777e+001 4.700000e+001
      vertex   -3.616116e+001 1.632664e+001 4.700000e+001
    endloop
  endfacet
  facet normal 0.000000e+000 -0.000000e+000 9.585363e-001
    outer loop
      vertex   -3.616116e+001 1.632664e+001 4.700000e+001
      vertex   -1.777639e+001 5.026777e+001 4.700000e+001
      vertex   -4.393934e+001 2.410482e+001 4.700000e+001
    endloop
  endfacet
  facet normal 7.071069e-001 7.071067e-001 -0.000000e+000
    outer loop
      vertex   -9.998215e+000 4.248959e+001 -6.700000e+001
      vertex   -1.777639e+001 5.026777e+001 -6.700000e+001
      vertex   -9.998215e+000 4.248959e+001 -2.900000e+001
    endloop
  endfacet
  facet normal 6.792216e-001 6.792215e-001 0.000000e+000
    outer loop
      vertex   -9.998215e+000 4.248959e+001 -2.900000e+001
      vertex   -1.777639e+001 5.026777e+001 -6.700000e+001
      vertex   -1.777639e+001 5.026777e+001 -2.900000e+001
    endloop
  endfacet
  facet normal 6.792216e-001 6.792215e-001 -2.775558e-017
    outer loop
      vertex   -9.998215e+000 4.248959e+001 -2.900000e+001
      vertex   -1.777639e+001 5.026777e+001 -2.900000e+001
      vertex   -1.777639e+001 5.026777e+001 9.000004e+000
    endloop
  endfacet
  facet normal 7.071069e-001 7.071067e-001 0.000000e+000
    outer loop
      vertex   -1.777639e+001 5.026777e+001 4.700000e+001
      vertex   -9.998215e+000 4.248959e+001 4.700000e+001
      vertex   -1.777639e+001 5.026777e+001 9.000004e+000
    endloop
  endfacet
  facet normal 6.792216e-001 6.792215e-001 2.775558e-017
    outer loop
      vertex   -1.777639e+001 5.026777e+001 9.000004e+000
      vertex   -9.998215e+000 4.248959e+001 4.700000e+001
      vertex   -9.998215e+000 4.248959e+001 9.000004e+000
    endloop
  endfacet
  facet normal 6.792216e-001 6.792215e-001 -2.775558e-017
    outer loop
      vertex   -1.777639e+001 5.026777e+001 9.000004e+000
      vertex   -9.998215e+000 4.248959e+001 9.000004e+000
      vertex   -9.998215e+000 4.248959e+001 -2.900000e+001
    endloop
  endfacet
  facet normal 0.000000e+000 0.000000e+000 -1.000000e+000
    outer loop
      vertex   -3.616116e+001 1.632664e+001 -6.700000e+001
      vertex   -4.393934e+001 2.410482e+001 -6.700000e+001
      vertex   -9.998215e+000 4.248959e+001 -6.700000e+001
    endloop
  endfacet
  facet normal -0.000000e+000 0.000000e+000 -9.585364e-001
    outer loop
      vertex   -9.998215e+000 4.248959e+001 -6.700000e+001
      vertex   -4.393934e+001 2.410482e+001 -6.700000e+001
      vertex   -1.777639e+001 5.026777e+001 -6.700000e+001
    endloop
  endfacet
  facet normal -7.071068e-001 -7.071068e-001 -0.000000e+000
    outer loop
      vertex   -3.616116e+001 1.632664e+001 4.700000e+001
      vertex   -4.393934e+001 2.410482e+001 4.700000e+001
      vertex   -3.616116e+001 1.632664e+001 9.000004e+000
    endloop
  endfacet
  facet normal -6.792215e-001 -6.792215e-001 0.000000e+000
    outer loop
      vertex   -3.616116e+001 1.632664e+001 9.000004e+000
      vertex   -4.393934e+001 2.410482e+001 4.700000e+001
      vertex   -4.393934e+001 2.410482e+001 9.000004e+000
    endloop
  endfacet
  facet normal -6.792215e-001 -6.792215e-001 0.000000e+000
    outer loop
      vertex   -3.616116e+001 1.632664e+001 9.000004e+000
      vertex   -4.393934e+001 2.410482e+001 9.000004e+000
      vertex   -4.393934e+001 2.410482e+001 -2.900000e+001
    endloop
  endfacet
  facet normal -7.071068e-001 -7.071068e-001 0.000000e+000
    outer loop
      vertex   -4.393934e+001 2.410482e+001 -6.700000e+001
      vertex   -3.616116e+001 1.632664e+001 -6.700000e+001
      vertex   -4.393934e+001 2.410482e+001 -2.900000e+001
    endloop
  endfacet
  facet normal -6.792215e-001 -6.792215e-001 0.000000e+000
    outer loop
      vertex   -4.393934e+001 2.410482e+001 -2.900000e+001
      vertex   -3.616116e+001 1.632664e+001 -6.700000e+001
      vertex   -3.616116e+001 1.632664e+001 -2.900000e+001
    endloop
  endfacet
  facet normal -6.792215e-001 -6.792215e-001 0.000000e+000
    outer loop
      vertex   -4.393934e+001 2.410482e+001 -2.900000e+001
      vertex   -3.616116e+001 1.632664e+001 -2.900000e+001
      vertex   -3.616116e+001 1.632664e+001 9.000004e+000
    endloop
  endfacet
endsolid
